<svg width=" 100%" height=" 100%" viewBox="0 0 16 16" fill="none" xmlns="http://www.w3.org/2000/svg">
<g clip-path="url(#clip0_1436_8256)">
<path d="M12.4232 8.94167C12.4057 7.04666 14.0146 6.12472 14.0882 6.0818C13.177 4.7865 11.7647 4.60952 11.2684 4.59542C10.0822 4.47371 8.93156 5.28744 8.32731 5.28744C7.71099 5.28744 6.78051 4.60717 5.77764 4.62716C4.48712 4.64657 3.27983 5.37506 2.61768 6.5063C1.25118 8.81291 2.27033 12.2026 3.57954 14.067C4.23444 14.9801 4.99971 15.9997 6.00137 15.9638C6.98132 15.9244 7.34736 15.3547 8.52994 15.3547C9.70164 15.3547 10.0454 15.9638 11.0669 15.9409C12.1187 15.9244 12.7808 15.0236 13.4128 14.1023C14.1696 13.0557 14.4735 12.025 14.4856 11.9721C14.4609 11.9638 12.4431 11.213 12.4232 8.94167Z" fill="currentColor"></path>
<path d="M10.4921 3.3688C11.0191 2.72615 11.3798 1.85184 11.2797 0.9646C10.5168 0.997526 9.56279 1.47907 9.01341 2.10761C8.52738 2.66148 8.09318 3.56929 8.20535 4.42304C9.06228 4.48536 9.9421 4.00146 10.4921 3.3688Z" fill="currentColor"></path>
</g>
<defs>
<clipPath id="clip0_1436_8256">
<rect width="15" height="15" fill="currentColor" transform="translate(0.75 0.9646)"></rect>
</clipPath>
</defs>
</svg>