<svg width=" 100%" height=" 100%" viewBox="0 0 16 16" fill="none" xmlns="http://www.w3.org/2000/svg">
<g clip-path="url(#clip0_1436_8261)">
<path d="M0.980479 1.6063C0.814694 1.77551 0.71875 2.03895 0.71875 2.38012V14.5493C0.71875 14.8905 0.814694 15.1539 0.980479 15.3232L1.0214 15.3603L8.01546 8.54384V8.38287L1.0214 1.56641L0.980479 1.6063Z" fill="currentColor"></path>
<path d="M11.1881 10.8172L8.85938 8.54388V8.38293L11.191 6.10962L11.2432 6.13921L14.0044 7.67101C14.7924 8.10573 14.7924 8.82108 14.0044 9.25855L11.2432 10.7876L11.1881 10.8172Z" fill="currentColor"></path>
<path d="M10.825 11.2107L8.44124 8.88647L1.40625 15.7463C1.66798 16.0145 2.09479 16.0469 2.58016 15.7786L10.825 11.2107Z" fill="currentColor"></path>
<path d="M10.825 5.71594L2.58016 1.14802C2.09479 0.882512 1.66798 0.914839 1.40625 1.1831L8.44124 8.04014L10.825 5.71594Z" fill="currentColor"></path>
</g>
<defs>
<clipPath id="clip0_1436_8261">
<rect width="15" height="15" fill="currentColor" transform="translate(0.25 0.9646)"></rect>
</clipPath>
</defs>
</svg>