<svg xmlns="http://www.w3.org/2000/svg" width="100%" viewBox="0 0 101 32" fill="none"><g clip-path="url(#clip0_89_609)"><path d="M33.4872 8.76953C33.8779 8.76953 34.1942 8.88093 34.436 9.08515C34.6779 9.28937 34.8453 9.58642 34.9383 9.95773H34.9941C35.1057 9.95773 35.2918 9.88347 35.5336 9.75351C35.7755 9.62355 35.9429 9.53072 36.0359 9.49359C36.7987 9.21511 37.5614 9.02945 38.3242 8.93662C39.1055 8.82523 39.8869 8.76953 40.7055 8.76953C41.4124 8.76953 42.1565 8.82523 42.9193 8.91805C43.6821 9.01088 44.4262 9.19654 45.1331 9.4379C45.8401 9.69782 46.5098 10.032 47.1051 10.4776C47.7005 10.9231 48.2027 11.4801 48.612 12.167C48.7609 12.4455 48.9097 12.7426 49.0399 13.1139C49.1701 13.4666 49.2446 13.8008 49.2446 14.1164V24.8103C49.2446 25.1816 49.0771 25.4601 48.7609 25.6828C48.4446 25.8871 48.1283 25.9985 47.8121 25.9985C47.6818 25.9985 47.533 25.9613 47.3656 25.9056C47.1982 25.8499 47.0493 25.7571 46.9005 25.6643C46.7517 25.5529 46.64 25.4415 46.5284 25.3115C46.4354 25.1816 46.3796 25.0516 46.3796 24.8845V14.3949C46.3796 14.3578 46.3424 14.2278 46.2494 14.0236C46.1563 13.8194 46.1005 13.6894 46.0633 13.6337C45.8029 13.2067 45.468 12.854 45.0401 12.5941C44.6122 12.3156 44.1471 12.1299 43.6448 11.9814C43.1425 11.8514 42.6216 11.7586 42.1007 11.7029C41.5798 11.6472 41.0961 11.6286 40.6496 11.6286C40.1846 11.6286 39.7009 11.6472 39.1986 11.6843C38.6963 11.7215 38.2126 11.8143 37.7289 11.9443C37.2638 12.0742 36.7987 12.2599 36.3708 12.5012C35.9429 12.7426 35.5894 13.0582 35.2918 13.4666C35.236 13.5595 35.1429 13.708 35.0499 13.9122C34.9383 14.1164 34.8825 14.2278 34.8825 14.2835V24.736C34.8825 25.0887 34.7151 25.3858 34.3802 25.6271C34.0453 25.8685 33.7105 25.9985 33.4128 25.9985C33.1338 25.9985 32.8547 25.9056 32.5198 25.7014C32.2036 25.5158 32.0361 25.2558 32.0361 24.9402V9.82778C32.0361 9.49359 32.2036 9.25224 32.5198 9.06658C32.9291 8.86236 33.2268 8.76953 33.4872 8.76953Z" fill="currentColor"></path><path d="M51.6064 17.3645C51.6064 16.0834 51.8111 14.9324 52.239 13.8741C52.6668 12.8159 53.2622 11.9062 54.0249 11.145C54.7877 10.3838 55.6993 9.78968 56.7597 9.38123C57.8201 8.97279 58.9735 8.75 60.22 8.75C61.206 8.75 62.1733 8.84283 63.0849 9.00992C64.0151 9.17701 64.9081 9.49262 65.7825 9.9382H65.8755C65.9871 9.60402 66.1731 9.32553 66.415 9.10275C66.6568 8.87996 66.9545 8.75 67.3266 8.75C67.6428 8.75 67.9591 8.8614 68.2754 9.06562C68.5916 9.26984 68.7591 9.56689 68.7591 9.9382V24.7722C68.7591 25.1435 68.5916 25.422 68.2754 25.6447C67.9591 25.849 67.6428 25.9604 67.3266 25.9604C66.9545 25.9604 66.6568 25.849 66.415 25.6076C66.1731 25.3848 65.9871 25.0878 65.8755 24.7722H65.7825C64.8523 25.2177 63.9221 25.5334 63.0105 25.7004C62.0989 25.8675 61.1315 25.9604 60.1269 25.9604C58.8619 25.9604 57.7085 25.7561 56.6666 25.3291C55.6248 24.9021 54.7133 24.308 53.9691 23.5468C53.2064 22.7856 52.6296 21.8759 52.2204 20.8177C51.8111 19.778 51.6064 18.6269 51.6064 17.3645ZM54.4714 17.3459C54.4714 18.1999 54.6202 18.9797 54.8993 19.6852C55.1783 20.3907 55.569 21.0033 56.0713 21.5046C56.5736 22.0244 57.1689 22.4143 57.8759 22.6928C58.5642 22.9713 59.3456 23.1198 60.2013 23.1198C60.6292 23.1198 61.1129 23.1012 61.6338 23.0456C62.1733 22.9899 62.6756 22.897 63.1779 22.7671C63.6802 22.6371 64.1453 22.4329 64.5732 22.173C65.0011 21.913 65.336 21.5603 65.5964 21.1147C65.6522 21.0219 65.708 20.8919 65.7825 20.7248C65.8569 20.5578 65.8755 20.4278 65.8755 20.2978V14.4497C65.8755 14.3383 65.8383 14.1897 65.7825 14.0226C65.708 13.8556 65.6522 13.7256 65.5964 13.6328C65.336 13.2058 65.0197 12.8716 64.5918 12.6117C64.1825 12.3517 63.7174 12.1475 63.2338 11.999C62.7315 11.8505 62.2292 11.7576 61.7083 11.7019C61.1873 11.6462 60.7036 11.6277 60.2572 11.6277C59.4014 11.6277 58.62 11.7576 57.9131 12.0361C57.2061 12.3146 56.5922 12.6859 56.0899 13.1872C55.5876 13.6885 55.197 14.2826 54.9179 14.9881C54.6202 15.6936 54.4714 16.4733 54.4714 17.3459Z" fill="currentColor"></path><path d="M72.443 6.03906C72.7407 6.03906 73.0384 6.11332 73.3732 6.26185C73.7081 6.41037 73.8755 6.68886 73.8755 7.07874V24.8646C73.8755 25.1988 73.7081 25.4587 73.3732 25.6629C73.0384 25.8672 72.7407 25.96 72.443 25.96C72.3128 25.96 72.164 25.9229 71.9965 25.8672C71.8291 25.8115 71.6803 25.7372 71.5501 25.6444C71.4198 25.5516 71.3082 25.4402 71.2152 25.2916C71.1222 25.1617 71.085 25.0132 71.085 24.8646V7.07874C71.085 6.74456 71.2524 6.5032 71.5687 6.31755C71.8849 6.13189 72.1826 6.03906 72.443 6.03906Z" fill="currentColor"></path><path d="M76.1826 17.3645C76.1826 16.0834 76.3873 14.9324 76.8151 13.8741C77.243 12.8159 77.8383 11.9062 78.6011 11.145C79.3639 10.3838 80.2754 9.78968 81.3358 9.38123C82.3963 8.97279 83.5497 8.75 84.7961 8.75C85.7821 8.75 86.7495 8.84283 87.6611 9.00992C88.5913 9.17701 89.4843 9.49262 90.3586 9.9382H90.4517C90.5633 9.60402 90.7493 9.32553 90.9912 9.10275C91.233 8.87996 91.5307 8.75 91.9028 8.75C92.219 8.75 92.5353 8.8614 92.8515 9.06562C93.1678 9.26984 93.3352 9.56689 93.3352 9.9382V24.7722C93.3352 25.1435 93.1678 25.422 92.8515 25.6447C92.5353 25.849 92.219 25.9604 91.9028 25.9604C91.5307 25.9604 91.233 25.849 90.9912 25.6076C90.7493 25.3848 90.5633 25.0878 90.4517 24.7722H90.3586C89.4285 25.2177 88.4983 25.5334 87.5867 25.7004C86.6751 25.8675 85.7077 25.9604 84.7031 25.9604C83.4381 25.9604 82.2846 25.7561 81.2428 25.3291C80.201 24.9021 79.2894 24.308 78.5453 23.5468C77.7825 22.7856 77.2058 21.8759 76.7965 20.8177C76.4059 19.778 76.1826 18.6269 76.1826 17.3645ZM79.0662 17.3459C79.0662 18.1999 79.215 18.9797 79.4941 19.6852C79.7731 20.3907 80.1638 21.0033 80.6661 21.5046C81.1684 22.0244 81.7637 22.4143 82.4707 22.6928C83.159 22.9713 83.9404 23.1198 84.7961 23.1198C85.224 23.1198 85.7077 23.1012 86.2286 23.0456C86.7681 22.9899 87.2704 22.897 87.7727 22.7671C88.275 22.6371 88.7401 22.4329 89.168 22.173C89.5959 21.913 89.9308 21.5603 90.1912 21.1147C90.247 21.0219 90.3028 20.8919 90.3772 20.7248C90.4517 20.5578 90.4703 20.4278 90.4703 20.2978V14.4497C90.4703 14.3383 90.4331 14.1897 90.3772 14.0226C90.3028 13.8556 90.247 13.7256 90.1912 13.6328C89.9308 13.2058 89.6145 12.8716 89.1866 12.6117C88.7773 12.3517 88.3122 12.1475 87.8285 11.999C87.3262 11.8505 86.8239 11.7576 86.303 11.7019C85.7821 11.6462 85.2984 11.6277 84.8519 11.6277C83.9962 11.6277 83.2148 11.7576 82.5079 12.0361C81.8009 12.3146 81.187 12.6859 80.6847 13.1872C80.1824 13.6885 79.7917 14.2826 79.5127 14.9881C79.1964 15.6936 79.0662 16.4733 79.0662 17.3459Z" fill="currentColor"></path><path d="M8.52152 15.5267C8.57733 15.4339 8.67035 15.3596 8.81918 15.3225C9.07963 15.2668 9.19125 15.044 9.24706 14.8212C9.32148 14.4685 9.52612 14.19 9.74936 13.9486C9.74936 13.9301 9.76797 13.9301 9.78657 13.9301C8.67035 11.3866 8.70756 11.9436 8.29828 9.17728C8.13084 8.04477 7.96341 6.85657 7.4239 5.87259C6.04722 3.31053 4.76357 3.42192 4.4287 3.57045C4.18685 3.68184 4.01942 4.33164 4.07523 4.68439C4.9496 12.0364 7.14485 13.4845 8.52152 15.5267Z" fill="currentColor"></path><path d="M12.093 12.5749C12.1488 12.7605 12.1861 12.9462 12.2047 13.1504C12.6139 13.0947 13.0046 13.1133 13.4139 13.1133C13.5441 13.1133 13.5813 13.169 13.5627 13.2804C13.5441 13.4846 13.5255 13.6888 13.4883 13.893C13.4697 14.023 13.5441 14.0787 13.6371 14.1158C13.8604 14.1715 14.065 14.2272 14.2883 14.2829C14.1022 13.6145 13.8976 12.6863 13.693 11.4609C13.4511 10.1799 13.4511 7.52501 13.1348 4.6659C12.8372 -0.606751 7.3119 -3.50299 12.093 12.5749Z" fill="currentColor"></path><path d="M16.4459 13.577C16.4087 13.6884 16.3157 14.0226 16.2041 14.3939C16.2413 14.4125 16.2971 14.4496 16.3343 14.4682C16.5948 14.6352 16.8924 14.6352 17.1901 14.6352C17.4319 14.6167 17.6738 14.5795 17.9156 14.5795C17.9528 14.5795 18.0273 14.6352 18.0459 14.6909C18.1203 14.9137 18.1761 15.1551 18.2505 15.3964C18.2505 15.4336 18.2877 15.4707 18.2691 15.4893C18.1575 15.6192 18.2505 15.7306 18.3063 15.8234C18.4365 16.0834 18.511 16.399 18.7528 16.6032C18.8272 16.6775 18.8458 16.826 18.8458 16.9374C18.8458 17.1602 18.9016 17.3458 19.0505 17.5315C19.1621 17.6429 19.2179 17.81 19.3109 17.9399C19.3481 17.9956 19.3667 18.0513 19.4039 18.0885C18.7714 16.4175 18.7342 14.6538 18.883 12.9272C20.6876 1.19372 15.9436 4.9811 16.5762 8.36005C17.0041 10.6251 17.2273 11.312 16.4459 13.577Z" fill="currentColor"></path><path d="M28.2223 17.1984C28.1851 15.9917 27.3851 15.4533 26.3433 16.0288C25.6736 16.4001 25.0969 17.0128 24.576 17.5883C24.1109 18.1267 23.8132 19.0179 23.4411 19.3521C22.7528 19.9647 21.9714 20.169 21.2645 20.0204C21.1157 20.2989 20.911 20.5774 20.6506 20.8002C20.6134 20.8187 20.5948 20.8559 20.5576 20.8744C20.0925 21.0415 19.8506 21.4685 19.5344 21.7842C19.3483 21.9513 19.2739 22.174 19.2553 22.3968C19.2367 22.6753 19.2925 22.9352 19.3297 23.2137C19.3855 23.5479 19.4599 23.8635 19.4971 24.1977C19.5344 24.4205 19.4041 24.5876 19.2367 24.699C19.0134 24.8475 18.7902 24.9589 18.5856 25.1074C18.3437 25.2745 18.3065 25.4045 18.4181 25.683C18.4553 25.8129 18.4925 25.9429 18.5111 26.0728C18.5484 26.2585 18.4553 26.407 18.2879 26.4627C17.9902 26.5741 17.9158 26.7783 17.9344 27.0568C17.953 27.2239 17.86 27.3724 17.7112 27.4653C17.6182 27.5395 17.5438 27.6323 17.4693 27.7252C17.4321 27.7809 17.3949 27.8366 17.3391 27.8737C17.1531 28.0594 16.9856 28.245 16.781 28.3935C16.6136 28.5049 16.4275 28.5978 16.2229 28.6163C15.9252 28.6535 15.6276 28.6163 15.3485 28.7463C15.1811 28.8205 15.0137 28.7463 14.9392 28.5606C14.8834 28.4121 14.8462 28.2636 14.809 28.1151C14.7346 27.8923 14.6788 27.6695 14.5858 27.4653C14.4183 27.0568 14.2509 26.6669 14.0649 26.277C14.0463 26.2399 14.0277 26.2214 14.0463 26.1842C14.0649 25.8315 13.8602 25.5716 13.7114 25.2745C13.4695 24.8289 13.4881 24.3834 13.7672 23.9378C13.8974 23.715 13.9718 23.4922 13.8974 23.2323C13.8044 22.9538 13.7486 22.6753 13.6742 22.3968C13.6556 22.3411 13.6184 22.2854 13.5812 22.2483C13.3951 22.0255 13.2277 21.8027 13.0417 21.5799C12.9672 21.4871 12.9672 21.3943 13.0231 21.2829C13.0975 21.1344 13.1533 20.9673 13.2091 20.8002C13.2463 20.6517 13.1719 20.5403 13.0044 20.5217C12.8556 20.4846 12.7068 20.4846 12.558 20.4846C12.4091 20.4846 12.2975 20.4289 12.2603 20.2803C12.2045 20.1133 12.0743 20.039 11.9254 20.0576C11.665 20.0761 11.4231 20.1504 11.1627 20.1875C10.958 20.2246 10.7534 20.2246 10.5488 20.2618C10.3999 20.2803 10.2325 20.2989 10.1023 20.3732C9.84182 20.5217 9.61857 20.5031 9.37673 20.3175C9.13488 20.1133 8.87443 19.9276 8.61397 19.7234C8.59537 19.7048 8.57677 19.6677 8.57677 19.6491C8.61398 19.482 8.48375 19.3892 8.39073 19.2778C8.29771 19.185 8.2419 19.055 8.16748 18.9436C8.14888 18.9065 8.11167 18.8694 8.07447 18.8694C7.94424 18.8508 7.88843 18.758 7.86983 18.6466C7.79541 18.3866 7.721 18.1267 7.85122 17.8482C7.85122 17.8297 7.86983 17.8111 7.86983 17.8111C7.62798 17.774 7.38613 17.6811 7.14428 17.4769C6.41874 16.8643 6.17689 16.5672 4.61418 13.6524C2.7352 8.1941 -2.17618 11.3317 1.09807 13.4853C2.02826 14.3765 3.01426 15.1934 3.92584 16.1031C6.60477 18.7951 6.69779 19.4263 8.65118 22.6567C9.80461 24.569 10.958 26.5184 12.2975 28.2821C13.0789 29.3218 14.1765 30.213 15.2927 30.8813C17.4507 32.1809 19.925 31.364 21.0413 29.099C21.4691 28.245 21.7482 27.3167 22.0086 26.3884C22.697 23.8635 23.1063 23.0838 25.2457 21.5799C25.9526 21.0787 26.641 20.5031 27.2549 19.8905C27.999 19.185 28.2595 18.2196 28.2223 17.1984ZM21.4319 24.4948C21.2273 25.1074 21.0226 25.7201 20.8366 26.3142C20.7622 26.5555 20.6692 26.6298 20.4645 26.6298C20.2785 26.6298 20.1669 26.537 20.0925 26.3142C20.0739 26.2399 20.0553 26.1657 20.0367 26.11C19.925 25.9057 19.8692 25.7015 20.1111 25.5159C20.1669 25.4602 20.1669 25.3116 20.1483 25.2188C20.0553 24.8289 20.1297 24.6247 20.5017 24.4576C20.7064 24.3648 20.8552 24.2348 20.9482 24.012C20.9854 23.9006 21.0971 23.8264 21.1715 23.7336C21.2459 23.8264 21.3575 23.9006 21.4133 24.012C21.4691 24.1234 21.4877 24.2348 21.525 24.3277C21.4505 24.4205 21.4505 24.4576 21.4319 24.4948Z" fill="currentColor"></path><path d="M101 11.7387C101 12.0729 100.944 12.3885 100.814 12.667C100.684 12.9641 100.516 13.2054 100.293 13.4282C100.07 13.651 99.8278 13.8181 99.5301 13.9295C99.2324 14.0594 98.9348 14.1151 98.5999 14.1151C98.2651 14.1151 97.9488 14.0594 97.6697 13.9295C97.3721 13.7995 97.1302 13.6324 96.907 13.4282C96.6837 13.2054 96.5163 12.9641 96.4047 12.667C96.2745 12.3699 96.2188 12.0729 96.2188 11.7387C96.2188 11.4045 96.2745 11.0889 96.4047 10.7919C96.5349 10.4948 96.7023 10.2535 96.907 10.0307C97.1302 9.80789 97.3721 9.6408 97.6697 9.52941C97.9674 9.39945 98.2651 9.34375 98.5999 9.34375C98.9348 9.34375 99.251 9.39945 99.5301 9.52941C99.8278 9.65937 100.07 9.82645 100.293 10.0307C100.516 10.2535 100.684 10.4948 100.814 10.7919C100.944 11.1075 101 11.4045 101 11.7387ZM100.628 11.7387C100.628 11.4602 100.572 11.2003 100.46 10.9404C100.349 10.699 100.2 10.4763 100.033 10.2906C99.8464 10.1049 99.6417 9.97498 99.3999 9.86359C99.158 9.75219 98.8976 9.6965 98.6185 9.6965C98.3395 9.6965 98.079 9.75219 97.8372 9.86359C97.5953 9.97498 97.3721 10.1235 97.186 10.2906C97 10.4763 96.8512 10.6805 96.7396 10.9404C96.6279 11.1818 96.5721 11.4602 96.5721 11.7387C96.5721 12.0172 96.6279 12.2771 96.7396 12.5185C96.8512 12.7598 97 12.9826 97.186 13.1497C97.3721 13.3354 97.5767 13.4653 97.8372 13.5767C98.079 13.6881 98.3395 13.7252 98.6185 13.7252C98.8976 13.7252 99.158 13.6695 99.3999 13.5767C99.6417 13.4653 99.8464 13.3354 100.033 13.1497C100.219 12.9641 100.349 12.7598 100.46 12.5185C100.572 12.2771 100.628 12.0172 100.628 11.7387ZM99.3999 12.5927L98.879 12.0729H98.3209V11.7387H98.9906C99.2324 11.7387 99.3627 11.6088 99.3627 11.3674C99.3627 11.256 99.3255 11.1632 99.2696 11.1075C99.1952 11.0332 99.1022 11.0147 98.9906 11.0147H97.8744V12.5927H97.5023V10.6619H98.9906C99.2324 10.6619 99.4185 10.7176 99.5301 10.8476C99.6603 10.9775 99.7161 11.1446 99.7161 11.3674C99.7161 11.5345 99.6789 11.6645 99.6045 11.7759C99.5301 11.8872 99.4371 11.9615 99.2883 12.0172L99.9022 12.5927H99.3999Z" fill="currentColor"></path></g><defs><clipPath id="clip0_89_609"><rect width="101" height="31" fill="currentColor" transform="translate(0 0.5)"></rect></clipPath></defs></svg>