<svg width="58" height="20" viewBox="0 0 58 20" fill="none" xmlns="http://www.w3.org/2000/svg">
<g clip-path="url(#clip0_1434_7638)">
<path d="M19.6167 5.72217C19.8342 5.72217 20.0103 5.78807 20.145 5.90888C20.2796 6.0297 20.3728 6.20542 20.4246 6.42509H20.4557C20.5178 6.42509 20.6214 6.38115 20.7561 6.30427C20.8907 6.22739 20.9839 6.17248 21.0357 6.15051C21.4604 5.98576 21.885 5.87593 22.3097 5.82102C22.7447 5.75512 23.1798 5.72217 23.6355 5.72217C24.0291 5.72217 24.4434 5.75512 24.868 5.81003C25.2927 5.86495 25.707 5.97478 26.1006 6.11756C26.4942 6.27132 26.8671 6.46902 27.1985 6.73262C27.53 6.99621 27.8096 7.3257 28.0375 7.73208C28.1203 7.89682 28.2032 8.07256 28.2757 8.29222C28.3482 8.5009 28.3896 8.69859 28.3896 8.88531V15.2116C28.3896 15.4312 28.2964 15.596 28.1203 15.7278C27.9443 15.8486 27.7682 15.9145 27.5921 15.9145C27.5196 15.9145 27.4367 15.8925 27.3435 15.8596C27.2503 15.8266 27.1674 15.7717 27.0846 15.7168C27.0017 15.6509 26.9396 15.585 26.8774 15.5081C26.8256 15.4312 26.7946 15.3544 26.7946 15.2555V9.05005C26.7946 9.02809 26.7738 8.9512 26.7221 8.83039C26.6703 8.70958 26.6392 8.6327 26.6185 8.59975C26.4735 8.34714 26.287 8.13846 26.0488 7.98469C25.8106 7.81994 25.5516 7.71011 25.272 7.62225C24.9923 7.54536 24.7023 7.49045 24.4123 7.4575C24.1223 7.42455 23.853 7.41357 23.6044 7.41357C23.3455 7.41357 23.0762 7.42455 22.7965 7.44652C22.5169 7.46849 22.2476 7.5234 21.9783 7.60028C21.7193 7.67716 21.4604 7.787 21.2222 7.92978C20.9839 8.07256 20.7871 8.25927 20.6214 8.5009C20.5903 8.55581 20.5386 8.64368 20.4868 8.76449C20.4246 8.88531 20.3936 8.95121 20.3936 8.98416V15.1677C20.3936 15.3763 20.3003 15.5521 20.1139 15.6948C19.9275 15.8376 19.741 15.9145 19.5753 15.9145C19.4199 15.9145 19.2646 15.8596 19.0781 15.7388C18.9021 15.6289 18.8088 15.4752 18.8088 15.2885V6.34821C18.8088 6.15051 18.9021 6.00773 19.0781 5.8979C19.306 5.77708 19.4717 5.72217 19.6167 5.72217Z" fill="#0099FF"/>
<path d="M29.7048 10.8074C29.7048 10.0495 29.8188 9.36856 30.057 8.74253C30.2952 8.11649 30.6267 7.57831 31.0513 7.12801C31.476 6.6777 31.9835 6.32624 32.5739 6.08461C33.1643 5.84298 33.8065 5.71118 34.5004 5.71118C35.0494 5.71118 35.588 5.7661 36.0955 5.86495C36.6134 5.96379 37.1105 6.15051 37.5973 6.4141H37.6491C37.7113 6.21641 37.8148 6.05166 37.9495 5.91986C38.0841 5.78806 38.2499 5.71118 38.457 5.71118C38.6331 5.71118 38.8092 5.77708 38.9853 5.8979C39.1613 6.01871 39.2546 6.19444 39.2546 6.4141V15.1896C39.2546 15.4093 39.1613 15.574 38.9853 15.7058C38.8092 15.8267 38.6331 15.8926 38.457 15.8926C38.2499 15.8926 38.0841 15.8267 37.9495 15.6839C37.8148 15.5521 37.7113 15.3764 37.6491 15.1896H37.5973C37.0795 15.4532 36.5616 15.6399 36.0541 15.7388C35.5465 15.8376 35.0079 15.8926 34.4486 15.8926C33.7443 15.8926 33.1021 15.7717 32.5221 15.5191C31.9421 15.2665 31.4346 14.9151 31.0203 14.4648C30.5956 14.0144 30.2745 13.4763 30.0466 12.8502C29.8188 12.2352 29.7048 11.5542 29.7048 10.8074ZM31.2999 10.7964C31.2999 11.3016 31.3828 11.7629 31.5381 12.1803C31.6935 12.5976 31.911 12.9601 32.1907 13.2566C32.4703 13.5641 32.8018 13.7948 33.1954 13.9595C33.5786 14.1243 34.0136 14.2121 34.4901 14.2121C34.7283 14.2121 34.9976 14.2012 35.2876 14.1682C35.588 14.1353 35.8676 14.0803 36.1473 14.0035C36.4269 13.9266 36.6859 13.8058 36.9241 13.652C37.1623 13.4982 37.3488 13.2896 37.4938 13.026C37.5248 12.971 37.5559 12.8942 37.5973 12.7953C37.6388 12.6965 37.6491 12.6196 37.6491 12.5427V9.083C37.6491 9.0171 37.6284 8.92924 37.5973 8.83039C37.5559 8.73154 37.5248 8.65466 37.4938 8.59975C37.3488 8.34713 37.1727 8.14944 36.9344 7.99567C36.7066 7.84191 36.4476 7.72109 36.1783 7.63323C35.8987 7.54536 35.619 7.49045 35.329 7.4575C35.039 7.42455 34.7697 7.41357 34.5211 7.41357C34.0447 7.41357 33.6097 7.49045 33.2161 7.6552C32.8225 7.81994 32.4807 8.0396 32.201 8.33615C31.9214 8.63269 31.7039 8.98415 31.5485 9.40151C31.3828 9.81887 31.2999 10.2802 31.2999 10.7964Z" fill="#0099FF"/>
<path d="M41.3057 4.10791C41.4714 4.10791 41.6371 4.15184 41.8236 4.23971C42.01 4.32757 42.1032 4.49232 42.1032 4.72296V15.2448C42.1032 15.4425 42.01 15.5962 41.8236 15.717C41.6371 15.8379 41.4714 15.8928 41.3057 15.8928C41.2332 15.8928 41.1503 15.8708 41.0571 15.8379C40.9639 15.8049 40.881 15.761 40.8085 15.7061C40.736 15.6511 40.6739 15.5852 40.6221 15.4974C40.5703 15.4205 40.5496 15.3326 40.5496 15.2448V4.72296C40.5496 4.52527 40.6428 4.38249 40.8189 4.27265C40.9949 4.16282 41.1607 4.10791 41.3057 4.10791Z" fill="#0099FF"/>
<path d="M43.3875 10.8074C43.3875 10.0495 43.5014 9.36856 43.7396 8.74253C43.9778 8.11649 44.3092 7.57831 44.7338 7.12801C45.1585 6.6777 45.6661 6.32624 46.2565 6.08461C46.8469 5.84298 47.489 5.71118 48.1829 5.71118C48.7319 5.71118 49.2705 5.7661 49.778 5.86495C50.2959 5.96379 50.793 6.15051 51.2799 6.4141H51.3316C51.3938 6.21641 51.4974 6.05166 51.632 5.91986C51.7667 5.78806 51.9324 5.71118 52.1395 5.71118C52.3156 5.71118 52.4918 5.77708 52.6679 5.8979C52.8439 6.01871 52.9371 6.19444 52.9371 6.4141V15.1896C52.9371 15.4093 52.8439 15.574 52.6679 15.7058C52.4918 15.8267 52.3156 15.8926 52.1395 15.8926C51.9324 15.8926 51.7667 15.8267 51.632 15.6839C51.4974 15.5521 51.3938 15.3764 51.3316 15.1896H51.2799C50.762 15.4532 50.2441 15.6399 49.7366 15.7388C49.229 15.8376 48.6904 15.8926 48.1311 15.8926C47.4268 15.8926 46.7847 15.7717 46.2047 15.5191C45.6247 15.2665 45.1172 14.9151 44.7029 14.4648C44.2782 14.0144 43.9571 13.4763 43.7293 12.8502C43.5117 12.2352 43.3875 11.5542 43.3875 10.8074ZM44.9929 10.7964C44.9929 11.3016 45.0756 11.7629 45.231 12.1803C45.3864 12.5976 45.6039 12.9601 45.8835 13.2566C46.1632 13.5641 46.4947 13.7948 46.8883 13.9595C47.2716 14.1243 47.7065 14.2121 48.1829 14.2121C48.4211 14.2121 48.6904 14.2012 48.9805 14.1682C49.2808 14.1353 49.5605 14.0803 49.8401 14.0035C50.1198 13.9266 50.3788 13.8058 50.6171 13.652C50.8553 13.4982 51.0416 13.2896 51.1866 13.026C51.2177 12.971 51.2488 12.8942 51.2902 12.7953C51.3316 12.6965 51.342 12.6196 51.342 12.5427V9.083C51.342 9.0171 51.3213 8.92924 51.2902 8.83039C51.2488 8.73154 51.2177 8.65466 51.1866 8.59975C51.0416 8.34713 50.8655 8.14944 50.6273 7.99567C50.3995 7.84191 50.1406 7.72109 49.8713 7.63323C49.5917 7.54536 49.3119 7.49045 49.0219 7.4575C48.7319 7.42455 48.4627 7.41357 48.2141 7.41357C47.7376 7.41357 47.3026 7.49045 46.909 7.6552C46.5154 7.81994 46.1736 8.0396 45.894 8.33615C45.6143 8.63269 45.3968 8.98415 45.2415 9.40151C45.0654 9.81887 44.9929 10.2802 44.9929 10.7964Z" fill="#0099FF"/>
<path d="M57.0274 7.2906C57.0274 7.4883 56.9963 7.67501 56.9238 7.83976C56.8513 8.01549 56.7581 8.15827 56.6338 8.29007C56.5095 8.42186 56.3749 8.52071 56.2091 8.58661C56.0434 8.66349 55.8777 8.69644 55.6913 8.69644C55.5048 8.69644 55.3287 8.66349 55.1734 8.58661C55.0076 8.50973 54.873 8.41088 54.7487 8.29007C54.6244 8.15827 54.5312 8.01549 54.4691 7.83976C54.3966 7.66403 54.3655 7.4883 54.3655 7.2906C54.3655 7.09291 54.3966 6.90619 54.4691 6.73046C54.5416 6.55473 54.6348 6.41195 54.7487 6.28015C54.873 6.14836 55.0076 6.04951 55.1734 5.98361C55.3391 5.90673 55.5048 5.87378 55.6913 5.87378C55.8777 5.87378 56.0538 5.90673 56.2091 5.98361C56.3749 6.06049 56.5095 6.15934 56.6338 6.28015C56.7581 6.41195 56.8513 6.55473 56.9238 6.73046C56.9963 6.91717 57.0274 7.09291 57.0274 7.2906ZM56.8202 7.2906C56.8202 7.12585 56.7892 6.97209 56.727 6.81833C56.6649 6.67555 56.582 6.54375 56.4888 6.43392C56.3852 6.32409 56.2713 6.2472 56.1366 6.18131C56.002 6.11541 55.857 6.08246 55.7016 6.08246C55.5462 6.08246 55.4012 6.11541 55.2666 6.18131C55.1319 6.2472 55.0077 6.33507 54.9041 6.43392C54.8005 6.54375 54.7176 6.66456 54.6555 6.81833C54.5933 6.96111 54.5623 7.12585 54.5623 7.2906C54.5623 7.45535 54.5933 7.60911 54.6555 7.75189C54.7176 7.89467 54.8005 8.02647 54.9041 8.12532C55.0077 8.23515 55.1216 8.31203 55.2666 8.37793C55.4012 8.44383 55.5462 8.4658 55.7016 8.4658C55.857 8.4658 56.002 8.43285 56.1366 8.37793C56.2713 8.31203 56.3852 8.23515 56.4888 8.12532C56.5924 8.01549 56.6649 7.89467 56.727 7.75189C56.7892 7.60911 56.8202 7.45535 56.8202 7.2906ZM56.1366 7.79583L55.8466 7.4883H55.5359V7.2906H55.9088C56.0434 7.2906 56.1159 7.21372 56.1159 7.07094C56.1159 7.00504 56.0952 6.95013 56.0641 6.91718C56.0227 6.87324 55.9709 6.86226 55.9088 6.86226H55.2873V7.79583H55.0802V6.65358H55.9088C56.0434 6.65358 56.147 6.68653 56.2091 6.76341C56.2816 6.84029 56.3127 6.93914 56.3127 7.07094C56.3127 7.16979 56.292 7.24667 56.2506 7.31257C56.2091 7.37847 56.1573 7.4224 56.0745 7.45535L56.4163 7.79583H56.1366Z" fill="#0099FF"/>
<path d="M5.71658 9.72023C5.74765 9.66531 5.79944 9.62138 5.8823 9.59941C6.02731 9.56646 6.08945 9.43467 6.12053 9.30287C6.16196 9.09419 6.27589 8.92944 6.40018 8.78666C6.40018 8.77568 6.41054 8.77568 6.4209 8.77568C5.79944 7.27099 5.82016 7.60049 5.59229 5.964C5.49907 5.29403 5.40585 4.59111 5.10548 4.009C4.33901 2.49333 3.62434 2.55923 3.4379 2.6471C3.30325 2.713 3.21003 3.0974 3.24111 3.30608C3.72791 7.6554 4.95012 8.51208 5.71658 9.72023Z" fill="#0099FF"/>
<path d="M7.70543 7.97385C7.7365 8.08368 7.75722 8.19351 7.76757 8.31433C7.99544 8.28138 8.21295 8.29236 8.44082 8.29236C8.51332 8.29236 8.53404 8.32531 8.52368 8.39121C8.51332 8.51202 8.50296 8.63284 8.48225 8.75365C8.47189 8.83053 8.51332 8.86348 8.56511 8.88545C8.6894 8.9184 8.80334 8.95135 8.92763 8.9843C8.82405 8.58891 8.71012 8.03975 8.59618 7.31486C8.46153 6.55703 8.46153 4.98644 8.28545 3.29504C8.11973 0.175832 5.04352 -1.53753 7.70543 7.97385Z" fill="#0099FF"/>
<path d="M10.1298 8.56723C10.109 8.63313 10.0573 8.83083 9.99512 9.05049C10.0158 9.06148 10.0469 9.08344 10.0676 9.09443C10.2126 9.19328 10.3783 9.19327 10.5441 9.19327C10.6787 9.18229 10.8134 9.16032 10.948 9.16032C10.9687 9.16032 11.0102 9.19327 11.0205 9.22622C11.0619 9.35802 11.093 9.5008 11.1345 9.64358C11.1345 9.66555 11.1552 9.68752 11.1448 9.6985C11.0827 9.77538 11.1345 9.84128 11.1655 9.89619C11.238 10.0499 11.2795 10.2367 11.4141 10.3575C11.4555 10.4014 11.4659 10.4893 11.4659 10.5552C11.4659 10.687 11.497 10.7968 11.5798 10.9066C11.642 10.9725 11.673 11.0714 11.7248 11.1482C11.7456 11.1812 11.7559 11.2142 11.7766 11.2361C11.4245 10.2476 11.4038 9.20426 11.4866 8.18283C12.4913 1.24149 9.85011 3.48205 10.2023 5.48098C10.4405 6.82092 10.5648 7.22729 10.1298 8.56723Z" fill="#0099FF"/>
<path d="M16.6854 10.7082C16.6647 9.99427 16.2193 9.67576 15.6393 10.0163C15.2664 10.2359 14.9453 10.5984 14.6553 10.9388C14.3964 11.2573 14.2307 11.7845 14.0235 11.9822C13.6403 12.3447 13.2053 12.4655 12.8117 12.3776C12.7288 12.5424 12.6149 12.7071 12.4699 12.8389C12.4492 12.8499 12.4388 12.8719 12.4181 12.8829C12.1591 12.9817 12.0245 13.2343 11.8484 13.421C11.7448 13.5199 11.7034 13.6517 11.693 13.7835C11.6827 13.9482 11.7138 14.102 11.7345 14.2667C11.7655 14.4644 11.807 14.6511 11.8277 14.8488C11.8484 14.9806 11.7759 15.0795 11.6827 15.1454C11.5584 15.2332 11.4341 15.2991 11.3202 15.387C11.1855 15.4859 11.1648 15.5627 11.227 15.7275C11.2477 15.8044 11.2684 15.8812 11.2787 15.9581C11.2995 16.068 11.2477 16.1558 11.1545 16.1888C10.9887 16.2547 10.9473 16.3755 10.9577 16.5402C10.968 16.6391 10.9162 16.7269 10.8334 16.7819C10.7816 16.8258 10.7401 16.8807 10.6987 16.9356C10.678 16.9686 10.6573 17.0015 10.6262 17.0235C10.5226 17.1333 10.4294 17.2432 10.3155 17.331C10.2223 17.3969 10.1187 17.4518 10.0048 17.4628C9.83903 17.4848 9.67331 17.4628 9.51795 17.5397C9.42473 17.5836 9.33151 17.5397 9.29008 17.4299C9.25901 17.342 9.23829 17.2541 9.21758 17.1663C9.17615 17.0345 9.14507 16.9027 9.09328 16.7819C9.00007 16.5402 8.90685 16.3096 8.80327 16.0789C8.79291 16.057 8.78256 16.046 8.79291 16.024C8.80327 15.8153 8.68934 15.6616 8.60648 15.4859C8.47183 15.2223 8.48218 14.9587 8.63755 14.6951C8.71005 14.5633 8.75148 14.4315 8.71005 14.2777C8.65826 14.113 8.62719 13.9482 8.58576 13.7835C8.5754 13.7505 8.55469 13.7176 8.53397 13.6956C8.4304 13.5638 8.33718 13.432 8.2336 13.3002C8.19217 13.2453 8.19217 13.1904 8.22324 13.1245C8.26467 13.0366 8.29575 12.9378 8.32682 12.8389C8.34754 12.7511 8.3061 12.6852 8.21289 12.6742C8.13003 12.6522 8.04716 12.6522 7.9643 12.6522C7.88144 12.6522 7.8193 12.6193 7.79858 12.5314C7.76751 12.4325 7.69501 12.3886 7.61215 12.3996C7.46714 12.4106 7.33249 12.4545 7.18748 12.4765C7.07355 12.4984 6.95961 12.4984 6.84568 12.5204C6.76282 12.5314 6.6696 12.5424 6.5971 12.5863C6.45209 12.6742 6.3278 12.6632 6.19315 12.5534C6.0585 12.4325 5.9135 12.3227 5.76849 12.2019C5.75813 12.1909 5.74777 12.1689 5.74777 12.158C5.76849 12.0591 5.69599 12.0042 5.6442 11.9383C5.59241 11.8834 5.56134 11.8065 5.5199 11.7406C5.50955 11.7186 5.48883 11.6967 5.46812 11.6967C5.39561 11.6857 5.36454 11.6308 5.35418 11.5649C5.31275 11.4111 5.27132 11.2573 5.34383 11.0926C5.34383 11.0816 5.35418 11.0706 5.35418 11.0706C5.21953 11.0487 5.08488 10.9938 4.95024 10.8729C4.54629 10.5105 4.41164 10.3348 3.5416 8.61039C2.49548 5.38135 -0.238933 7.2375 1.58401 8.51155C2.10189 9.03874 2.65084 9.52199 3.15837 10.0602C4.64987 11.6527 4.70165 12.0262 5.7892 13.9372C6.43138 15.0685 7.07355 16.2217 7.8193 17.2651C8.25432 17.8802 8.86542 18.4074 9.48687 18.8028C10.6884 19.5716 12.0659 19.0883 12.6874 17.7484C12.9256 17.2432 13.081 16.694 13.226 16.1448C13.6092 14.6511 13.8371 14.1898 15.0282 13.3002C15.4218 13.0037 15.805 12.6632 16.1468 12.3007C16.5611 11.8834 16.7061 11.3123 16.6854 10.7082ZM12.9049 15.0246C12.791 15.387 12.677 15.7494 12.5734 16.1009C12.532 16.2437 12.4802 16.2876 12.3663 16.2876C12.2627 16.2876 12.2006 16.2327 12.1591 16.1009C12.1488 16.057 12.1384 16.013 12.1281 15.9801C12.0659 15.8593 12.0348 15.7385 12.1695 15.6286C12.2006 15.5957 12.2006 15.5078 12.1902 15.4529C12.1384 15.2223 12.1799 15.1014 12.387 15.0026C12.5009 14.9477 12.5838 14.8708 12.6356 14.739C12.6563 14.6731 12.7185 14.6292 12.7599 14.5743C12.8013 14.6292 12.8635 14.6731 12.8945 14.739C12.9256 14.8049 12.936 14.8708 12.9567 14.9257C12.9152 14.9806 12.9152 15.0026 12.9049 15.0246Z" fill="#0099FF"/>
</g>
<defs>
<clipPath id="clip0_1434_7638">
<rect width="58" height="20" fill="white"/>
</clipPath>
</defs>
</svg>
